<svg xmlns="http://www.w3.org/2000/svg" x="0" y="0" width="96" height="84">
  <rect stroke-width="0" stroke="black" fill="gray" y="1" x="1" width="7" height="94"></rect>
  <rect stroke-width="0" stroke="black" fill="gray" y="1" x="9" width="7" height="94"></rect>
  <rect stroke-width="0" stroke="black" fill="gray" y="1" x="17" width="7" height="94"></rect>
  <rect stroke-width="0" stroke="black" fill="gray" y="1" x="25" width="7" height="94"></rect>
  <rect stroke-width="0" stroke="black" fill="gray" y="1" x="33" width="7" height="94"></rect>
  <rect stroke-width="0" stroke="black" fill="gray" y="1" x="41" width="7" height="94"></rect>
  <rect stroke-width="0" stroke="black" fill="gray" y="1" x="49" width="7" height="94"></rect>
  <rect stroke-width="0" stroke="black" fill="gray" y="1" x="57" width="7" height="94"></rect>
  <rect stroke-width="0" stroke="black" fill="gray" y="1" x="65" width="7" height="94"></rect>
  <rect stroke-width="0" stroke="black" fill="gray" y="1" x="73" width="7" height="94"></rect>
  <rect stroke-width="0" stroke="black" fill="gray" y="1" x="81" width="7" height="94"></rect>
  <rect stroke-width="0" stroke="black" fill="gray" y="1" x="89" width="7" height="94"></rect>
  <rect stroke-width="2" stroke="black" fill="none" x="0" y="0" width="96" height="84"></rect>
  <rect stroke-width="0" stroke="black" fill="black" x="0" y="42" width="96" height="1"></rect>
</svg>
