<svg xmlns="http://www.w3.org/2000/svg" x="0" y="0" width="84" height="96">
  <rect stroke-width="0" stroke="black" fill="gray" x="1" y="1" width="84" height="7"></rect>
  <rect stroke-width="0" stroke="black" fill="gray" x="1" y="9" width="84" height="7"></rect>
  <rect stroke-width="0" stroke="black" fill="gray" x="1" y="17" width="84" height="7"></rect>
  <rect stroke-width="0" stroke="black" fill="gray" x="1" y="25" width="84" height="7"></rect>
  <rect stroke-width="0" stroke="black" fill="gray" x="1" y="33" width="84" height="7"></rect>
  <rect stroke-width="0" stroke="black" fill="gray" x="1" y="41" width="84" height="7"></rect>
  <rect stroke-width="0" stroke="black" fill="gray" x="1" y="49" width="84" height="7"></rect>
  <rect stroke-width="0" stroke="black" fill="gray" x="1" y="57" width="84" height="7"></rect>
  <rect stroke-width="0" stroke="black" fill="gray" x="1" y="65" width="84" height="7"></rect>
  <rect stroke-width="0" stroke="black" fill="gray" x="1" y="73" width="84" height="7"></rect>
  <rect stroke-width="0" stroke="black" fill="gray" x="1" y="81" width="84" height="7"></rect>
  <rect stroke-width="0" stroke="black" fill="gray" x="1" y="89" width="84" height="7"></rect>
  <rect stroke-width="2" stroke="black" fill="none" x="0" y="0" width="84" height="96"></rect>
  <rect stroke-width="0" stroke="black" fill="black" x="42" y="0" width="1" height="96"></rect>
</svg>
